<svg width="183" height="70" viewBox="0 0 183 70" fill="none" xmlns="http://www.w3.org/2000/svg">
<g filter="url(#filter0_d)">
<g filter="url(#filter1_f)">
<path d="M56.232 36.432C54.776 36.432 53.536 36.192 52.512 35.712C51.488 35.232 50.704 34.568 50.16 33.72C49.616 32.872 49.344 31.912 49.344 30.84H51.696C51.696 31.368 51.832 31.896 52.104 32.424C52.392 32.952 52.864 33.392 53.52 33.744C54.192 34.096 55.096 34.272 56.232 34.272C57.288 34.272 58.152 34.12 58.824 33.816C59.496 33.496 59.992 33.088 60.312 32.592C60.632 32.08 60.792 31.528 60.792 30.936C60.792 30.216 60.48 29.624 59.856 29.16C59.232 28.68 58.32 28.384 57.12 28.272L55.176 28.104C53.624 27.976 52.384 27.496 51.456 26.664C50.528 25.832 50.064 24.736 50.064 23.376C50.064 22.304 50.32 21.368 50.832 20.568C51.36 19.768 52.088 19.144 53.016 18.696C53.944 18.232 55.024 18 56.256 18C57.472 18 58.544 18.224 59.472 18.672C60.4 19.12 61.12 19.752 61.632 20.568C62.16 21.368 62.424 22.328 62.424 23.448H60.072C60.072 22.888 59.936 22.36 59.664 21.864C59.408 21.368 59 20.96 58.44 20.64C57.88 20.32 57.152 20.16 56.256 20.16C55.392 20.16 54.672 20.312 54.096 20.616C53.536 20.92 53.112 21.32 52.824 21.816C52.552 22.296 52.416 22.816 52.416 23.376C52.416 24.016 52.664 24.584 53.16 25.08C53.656 25.576 54.392 25.864 55.368 25.944L57.312 26.112C59.104 26.272 60.52 26.768 61.56 27.6C62.616 28.416 63.144 29.528 63.144 30.936C63.144 32.008 62.856 32.96 62.28 33.792C61.704 34.624 60.896 35.272 59.856 35.736C58.816 36.2 57.608 36.432 56.232 36.432ZM66.7549 36V18.48H69.0589V25.44C69.4109 24.592 69.9149 23.944 70.5709 23.496C71.2429 23.032 72.0989 22.8 73.1389 22.8H73.2349C74.7709 22.8 75.9309 23.312 76.7149 24.336C77.4989 25.344 77.8909 26.792 77.8909 28.68V36H75.5869V28.2C75.5869 27.16 75.2909 26.352 74.6989 25.776C74.1229 25.2 73.3709 24.912 72.4429 24.912C71.4189 24.912 70.5949 25.256 69.9709 25.944C69.3629 26.616 69.0589 27.504 69.0589 28.608V36H66.7549ZM88.0104 36.432C86.8904 36.432 85.9064 36.24 85.0584 35.856C84.2104 35.472 83.4904 34.968 82.8984 34.344C82.3224 33.704 81.8824 32.992 81.5784 32.208C81.2904 31.424 81.1464 30.624 81.1464 29.808V29.376C81.1464 28.56 81.2984 27.76 81.6024 26.976C81.9064 26.176 82.3544 25.464 82.9464 24.84C83.5384 24.2 84.2584 23.696 85.1064 23.328C85.9544 22.944 86.9224 22.752 88.0104 22.752C89.0984 22.752 90.0664 22.944 90.9144 23.328C91.7624 23.696 92.4824 24.2 93.0744 24.84C93.6664 25.464 94.1144 26.176 94.4184 26.976C94.7224 27.76 94.8744 28.56 94.8744 29.376V29.808C94.8744 30.624 94.7224 31.424 94.4184 32.208C94.1304 32.992 93.6904 33.704 93.0984 34.344C92.5224 34.968 91.8104 35.472 90.9624 35.856C90.1144 36.24 89.1304 36.432 88.0104 36.432ZM88.0104 34.368C88.9704 34.368 89.7864 34.16 90.4584 33.744C91.1464 33.312 91.6664 32.736 92.0184 32.016C92.3864 31.296 92.5704 30.488 92.5704 29.592C92.5704 28.68 92.3864 27.864 92.0184 27.144C91.6504 26.424 91.1224 25.856 90.4344 25.44C89.7624 25.024 88.9544 24.816 88.0104 24.816C87.0824 24.816 86.2744 25.024 85.5864 25.44C84.8984 25.856 84.3704 26.424 84.0024 27.144C83.6344 27.864 83.4504 28.68 83.4504 29.592C83.4504 30.488 83.6264 31.296 83.9784 32.016C84.3464 32.736 84.8664 33.312 85.5384 33.744C86.2264 34.16 87.0504 34.368 88.0104 34.368ZM98.3252 40.8V23.184H100.149V26.328C100.581 25.096 101.253 24.192 102.165 23.616C103.077 23.04 104.101 22.752 105.237 22.752C106.485 22.752 107.565 23.056 108.477 23.664C109.405 24.272 110.125 25.08 110.637 26.088C111.149 27.08 111.405 28.176 111.405 29.376V29.808C111.405 31.008 111.141 32.112 110.613 33.12C110.085 34.112 109.349 34.912 108.405 35.52C107.477 36.128 106.405 36.432 105.189 36.432C104.309 36.432 103.461 36.248 102.645 35.88C101.829 35.512 101.157 34.912 100.629 34.08V40.8H98.3252ZM104.829 34.416C105.693 34.416 106.445 34.216 107.085 33.816C107.725 33.4 108.221 32.832 108.573 32.112C108.925 31.376 109.101 30.536 109.101 29.592C109.101 28.632 108.925 27.792 108.573 27.072C108.221 26.352 107.725 25.792 107.085 25.392C106.445 24.976 105.693 24.768 104.829 24.768C104.061 24.768 103.349 24.944 102.693 25.296C102.037 25.632 101.509 26.128 101.109 26.784C100.725 27.424 100.533 28.2 100.533 29.112V30.216C100.533 31.096 100.733 31.848 101.133 32.472C101.533 33.096 102.061 33.576 102.717 33.912C103.373 34.248 104.077 34.416 104.829 34.416ZM114.872 40.8V23.184H116.696V26.328C117.128 25.096 117.8 24.192 118.712 23.616C119.624 23.04 120.648 22.752 121.784 22.752C123.032 22.752 124.112 23.056 125.024 23.664C125.952 24.272 126.672 25.08 127.184 26.088C127.696 27.08 127.952 28.176 127.952 29.376V29.808C127.952 31.008 127.688 32.112 127.16 33.12C126.632 34.112 125.896 34.912 124.952 35.52C124.024 36.128 122.952 36.432 121.736 36.432C120.856 36.432 120.008 36.248 119.192 35.88C118.376 35.512 117.704 34.912 117.176 34.08V40.8H114.872ZM121.376 34.416C122.24 34.416 122.992 34.216 123.632 33.816C124.272 33.4 124.768 32.832 125.12 32.112C125.472 31.376 125.648 30.536 125.648 29.592C125.648 28.632 125.472 27.792 125.12 27.072C124.768 26.352 124.272 25.792 123.632 25.392C122.992 24.976 122.24 24.768 121.376 24.768C120.608 24.768 119.896 24.944 119.24 25.296C118.584 25.632 118.056 26.128 117.656 26.784C117.272 27.424 117.08 28.2 117.08 29.112V30.216C117.08 31.096 117.28 31.848 117.68 32.472C118.08 33.096 118.608 33.576 119.264 33.912C119.92 34.248 120.624 34.416 121.376 34.416ZM132.691 21.12C132.179 21.12 131.795 20.984 131.539 20.712C131.299 20.44 131.179 20.096 131.179 19.68C131.179 19.264 131.299 18.92 131.539 18.648C131.795 18.376 132.179 18.24 132.691 18.24C133.203 18.24 133.579 18.376 133.819 18.648C134.075 18.92 134.203 19.264 134.203 19.68C134.203 20.096 134.075 20.44 133.819 20.712C133.579 20.984 133.203 21.12 132.691 21.12ZM132.043 36V25.008H130.075V23.184H134.347V36H132.043ZM138.802 36V23.184H140.626V26.16C140.914 25.072 141.426 24.24 142.162 23.664C142.914 23.088 143.89 22.8 145.09 22.8H145.186C146.802 22.8 147.994 23.304 148.762 24.312C149.546 25.32 149.938 26.776 149.938 28.68V36H147.634V28.2C147.634 27.208 147.354 26.416 146.794 25.824C146.234 25.216 145.466 24.912 144.49 24.912C143.482 24.912 142.666 25.224 142.042 25.848C141.418 26.472 141.106 27.304 141.106 28.344V36H138.802ZM159.001 40.992C157.801 40.992 156.633 40.904 155.497 40.728V38.784C156.073 38.864 156.673 38.928 157.297 38.976C157.937 39.04 158.537 39.072 159.097 39.072C160.857 39.072 162.089 38.712 162.793 37.992C163.513 37.288 163.873 36.152 163.873 34.584V33.432C163.393 34.328 162.745 35 161.929 35.448C161.129 35.88 160.241 36.096 159.265 36.096C158.065 36.096 157.009 35.8 156.097 35.208C155.185 34.6 154.473 33.8 153.961 32.808C153.449 31.816 153.193 30.728 153.193 29.544V29.112C153.193 27.912 153.457 26.832 153.985 25.872C154.513 24.912 155.241 24.152 156.169 23.592C157.097 23.032 158.169 22.752 159.385 22.752C160.505 22.752 161.481 23 162.313 23.496C163.161 23.992 163.809 24.712 164.257 25.656V23.184H166.081V34.488C166.081 36.024 165.841 37.264 165.361 38.208C164.897 39.168 164.145 39.872 163.105 40.32C162.081 40.768 160.713 40.992 159.001 40.992ZM159.697 33.984C160.465 33.984 161.161 33.816 161.785 33.48C162.425 33.144 162.929 32.664 163.297 32.04C163.681 31.4 163.873 30.64 163.873 29.76V28.656C163.873 27.792 163.673 27.064 163.273 26.472C162.889 25.88 162.385 25.432 161.761 25.128C161.137 24.824 160.457 24.672 159.721 24.672C158.457 24.672 157.433 25.096 156.649 25.944C155.881 26.792 155.497 27.92 155.497 29.328C155.497 30.752 155.889 31.888 156.673 32.736C157.473 33.568 158.481 33.984 159.697 33.984Z" fill="#F3A847"/>
</g>
<g filter="url(#filter2_f)">
<path d="M8.90485 21.1552L25.1482 31.4L12.8333 39L8.90485 21.1552Z" fill="#7FB7B3"/>
<path d="M13.0185 39.1L25.1481 31.55L25.1481 46.275L13.0185 39.1Z" fill="#057D94"/>
<path d="M9.03705 21L25.1482 12.7L25.1482 31.2438L9.03705 21Z" fill="#F3A847"/>
<path d="M25.3826 31.2223L25.3043 12.6499L41.7222 21.1L25.3826 31.2223Z" fill="#F2F2F2"/>
<path d="M37.8333 39.1L25.4259 31.4L41.8148 21.2L37.8333 39.1Z" fill="#5D6C81"/>
<path d="M37.5556 39.3L25.3333 46.2391L25.3333 31.5688L37.5556 39.3Z" fill="#131921"/>
<path d="M19.037 46.9C19.037 48.7225 17.6275 50.3 15.8889 50.3C14.1502 50.3 12.7407 48.7225 12.7407 46.9C12.7407 45.0775 14.1502 43.6 15.8889 43.6C17.6275 43.6 19.037 45.0775 19.037 46.9Z" fill="#F3A847"/>
<path d="M28.5926 51.6C28.5926 53.4225 27.1832 55 25.4445 55C23.7058 55 22.2963 53.4225 22.2963 51.6C22.2963 49.7775 23.7058 48.3 25.4445 48.3C27.1832 48.3 28.5926 49.7775 28.5926 51.6Z" fill="#131921"/>
<path d="M37.7408 46.9C37.7408 48.7225 36.3313 50.3 34.5926 50.3C32.8539 50.3 31.4445 48.7225 31.4445 46.9C31.4445 45.0775 32.8539 43.6 34.5926 43.6C36.3313 43.6 37.7408 45.0775 37.7408 46.9Z" fill="#5D6C81"/>
<path d="M7.74072 16.1L25.1481 8V12.5375L8.94443 20.9L7.74072 16.1Z" fill="#131921"/>
<path d="M2.55554 13.3L19.5926 5.29999L25.0555 7.89999L7.74073 16L2.55554 13.3Z" fill="#F2F2F2"/>
<path d="M12.7407 47C12.7407 45.8667 13.3704 43.6 15.8889 43.6C16.9383 43.6667 19.037 44.4 19.037 46.8C19.0062 47.9333 18.3704 50.22 16.0741 50.3C14.9938 50.3 12.8148 49.64 12.7407 47Z" stroke="#FFBF6C"/>
<path d="M22.3704 51.8C22.3704 50.6667 23 48.4 25.5185 48.4C26.5679 48.4667 28.6667 49.2 28.6667 51.6C28.6358 52.7333 27.9259 54.8 25.7037 55C24.6234 55 22.4444 54.44 22.3704 51.8Z" stroke="#7E91AC"/>
<path d="M31.4445 47C31.4445 45.8667 32.0741 43.6 34.5926 43.6C35.642 43.6667 37.7408 44.4 37.7408 46.8C37.7099 47.9333 37 50 34.7778 50.2C33.6975 50.2 31.5185 49.64 31.4445 47Z" stroke="#7B889A"/>
<path d="M7.74073 16L2.55554 13.3L19.5926 5.29999L25.1111 7.93999" stroke="white"/>
<path d="M25.3333 31.4V31.4993M25.3333 31.4993V46.2L37.7407 39.32L25.3333 31.4993Z" stroke="#7E91AC"/>
<path d="M37.8333 39.2L25.2967 31.1905L41.7222 21.3L37.8333 39.2Z" stroke="#7B889A"/>
<path d="M25.2967 31.1905L41.6666 21.106L25.2407 12.7L25.2967 31.1905Z" stroke="#FFFEFE"/>
<path d="M25.0555 8L7.74072 16.1L8.94443 21L25.1481 12.6L25.0555 8Z" stroke="#7E91AC"/>
<path d="M9.03296 21.3342C15.5436 25.3894 18.5663 27.1353 25.0769 31.1905L25.2967 12.619" stroke="#FFBF6C"/>
<path d="M25.0769 31.6667L13.0185 39L25.1481 46.2L25.0769 31.6667Z" stroke="#19A0BA"/>
<path d="M12.7692 38.8095L9.03296 21.1905" stroke="#97CECA"/>
</g>
</g>
<defs>
<filter id="filter0_d" x="1.42847" y="0" width="190.572" height="74" filterUnits="userSpaceOnUse" color-interpolation-filters="sRGB">
<feFlood flood-opacity="0" result="BackgroundImageFix"/>
<feColorMatrix in="SourceAlpha" type="matrix" values="0 0 0 0 0 0 0 0 0 0 0 0 0 0 0 0 0 0 127 0"/>
<feOffset dx="5" dy="10"/>
<feGaussianBlur stdDeviation="2"/>
<feColorMatrix type="matrix" values="0 0 0 0 0 0 0 0 0 0 0 0 0 0 0 0 0 0 0.05 0"/>
<feBlend mode="normal" in2="BackgroundImageFix" result="effect1_dropShadow"/>
<feBlend mode="normal" in="SourceGraphic" in2="effect1_dropShadow" result="shape"/>
</filter>
<filter id="filter1_f" x="48.844" y="17.5" width="117.737" height="23.992" filterUnits="userSpaceOnUse" color-interpolation-filters="sRGB">
<feFlood flood-opacity="0" result="BackgroundImageFix"/>
<feBlend mode="normal" in="SourceGraphic" in2="BackgroundImageFix" result="shape"/>
<feGaussianBlur stdDeviation="0.25" result="effect1_foregroundBlur"/>
</filter>
<filter id="filter2_f" x="0.928467" y="4.24667" width="42.2569" height="51.7533" filterUnits="userSpaceOnUse" color-interpolation-filters="sRGB">
<feFlood flood-opacity="0" result="BackgroundImageFix"/>
<feBlend mode="normal" in="SourceGraphic" in2="BackgroundImageFix" result="shape"/>
<feGaussianBlur stdDeviation="0.25" result="effect1_foregroundBlur"/>
</filter>
</defs>
</svg>
